<?xml version="1.0" encoding="utf-8"?>
<!-- Generator: Adobe Illustrator 26.0.1, SVG Export Plug-In . SVG Version: 6.00 Build 0)  -->
<svg version="1.1" id="Layer_1" xmlns="http://www.w3.org/2000/svg" xmlns:xlink="http://www.w3.org/1999/xlink" x="0px" y="0px"
	 viewBox="0 0 161.2 639.3" style="enable-background:new 0 0 161.2 639.3;" xml:space="preserve">
<style type="text/css">
	.st0{enable-background:new    ;}
</style>
<g id="Layer_2_00000140725328196843833740000005504387432426558904_">
	<g id="Layer_1-2">
		<g class="st0">
			<path d="M81.2,119.4c-15.6,0-29.2-4.8-40.3-14.5s-16.8-23.3-16.8-41c0-15.9,5.7-29.2,17.2-39.4C52.7,14.1,66.1,9,81.2,9
				c14.7,0,27.6,4.7,38.8,14.1s16.9,23,16.9,41c0,17.4-5.5,30.9-16.5,40.7C109.5,114.5,96.4,119.4,81.2,119.4z M136.9,235.9v325.9
				c0,22.6-5.4,39.7-16.1,51.2c-10.8,11.5-24.3,17.4-41,17.4c-16.5,0-30-6-40.3-17.8c-10.4-11.8-15.5-28.7-15.5-50.8V239.1
				c0-22.3,5.1-39.1,15.5-50.4s23.8-16.9,40.3-16.9s30.2,5.7,41,16.9S136.9,215.8,136.9,235.9z"/>
		</g>
	</g>
</g>
</svg>
