<svg xmlns="http://www.w3.org/2000/svg" xmlns:xlink="http://www.w3.org/1999/xlink" viewBox="0 0 200.94 200.12"><defs><style>.cls-1{fill:none;}.cls-2{clip-path:url(#clip-path);}.cls-3{fill:#fff;}.cls-4{stroke:#fff;stroke-miterlimit:10;stroke-width:2px;}.cls-5{clip-path:url(#clip-path-2);}</style><clipPath id="clip-path" transform="translate(0 -13.14)"><polygon class="cls-1" points="194.2 125.62 186.13 108.95 156.78 99.22 156.32 92.64 124.32 74.77 124.32 70.07 83.47 60.06 136 0 167.49 11.21 167.85 17.73 205.91 24.04 214.73 37.78 246.24 44.81 250.26 64.88 194.2 125.62"/></clipPath><clipPath id="clip-path-2" transform="translate(0 -13.14)"><polygon class="cls-1" points="148.51 234.98 136.27 221.92 106.58 222.31 104.25 216.26 69.77 209.85 68.4 205.43 28.11 209.31 58.67 135.64 90.75 135.94 92.98 141.96 129.64 135.51 141.7 145.58 172.58 141.94 182.1 159.53 148.51 234.98"/></clipPath></defs><g id="Layer_2" data-name="Layer 2"><g id="Layer_3" data-name="Layer 3"><g class="cls-2"><path d="M123.8,162.46a19.86,19.86,0,0,1-16.37-8.61L68.74,97.55A19.86,19.86,0,0,1,73.86,70l56.31-38.68a19.84,19.84,0,0,1,27.59,5.11l38.68,56.31a19.87,19.87,0,0,1-5.11,27.59L135,159A19.74,19.74,0,0,1,123.8,162.46Zm.27-34.46a13,13,0,1,0,0,26h0a13,13,0,0,0,0-26Zm54.4-37.37a13,13,0,0,0,0,26h0a13,13,0,1,0,0-26Zm-45.89-8.51a13,13,0,0,0,0,26h0a13,13,0,1,0,0-26ZM86.69,73.61a13,13,0,0,0,0,26h0a13,13,0,0,0,0-26Zm54.4-37.38a13,13,0,1,0,10.73,5.64A12.91,12.91,0,0,0,141.09,36.23Z" transform="translate(0 -13.14)"/><path class="cls-3" d="M141.39,28.78A18.8,18.8,0,0,1,156.93,37l38.69,56.3a18.85,18.85,0,0,1-4.86,26.21l-56.3,38.68a18.82,18.82,0,0,1-26.2-4.86L69.57,97a18.84,18.84,0,0,1,4.86-26.2l56.3-38.69a18.76,18.76,0,0,1,10.66-3.31m-.27,34.45a14,14,0,1,0-11.55-6.07,13.95,13.95,0,0,0,11.55,6.07m-54.4,37.38a14,14,0,1,0-11.55-6.07,14,14,0,0,0,11.55,6.07m45.89,8.51a14,14,0,1,0-11.55-6.07,13.95,13.95,0,0,0,11.55,6.07m45.88,8.51a14,14,0,1,0-11.55-6.07,14,14,0,0,0,11.55,6.07M124.1,155a14,14,0,1,0-11.55-6.07A13.87,13.87,0,0,0,124.1,155M141.39,26.78v0h0a20.7,20.7,0,0,0-11.79,3.66L73.29,69.13a20.86,20.86,0,0,0-5.37,29l38.69,56.31a20.83,20.83,0,0,0,29,5.37l56.3-38.69a20.84,20.84,0,0,0,5.38-29l-38.69-56.3a20.86,20.86,0,0,0-17.19-9Zm-.27,34.45a12,12,0,1,1,6.78-2.11,12,12,0,0,1-6.78,2.11ZM86.72,98.61a12,12,0,0,1-9.9-5.21A12,12,0,0,1,86.7,74.61a12,12,0,0,1,0,24Zm45.89,8.51a12,12,0,1,1,9.87-18.8,12,12,0,0,1-9.87,18.8Zm45.88,8.51a12,12,0,1,1,6.79-2.11,12,12,0,0,1-6.79,2.11ZM124.1,153A12,12,0,1,1,134,134.21,12,12,0,0,1,124.1,153Z" transform="translate(0 -13.14)"/></g><polygon points="90.72 95.58 87.11 84.75 101.98 84.75 116.19 102.53 90.72 95.58"/><path class="cls-3" d="M101.5,98.9l12,15-22-6-3-9h13m1-2H85.72l.88,2.63,3,9,.34,1,1,.28,22,6,5.92,1.61-3.83-4.79-12-15-.6-.75Z" transform="translate(0 -13.14)"/><polyline class="cls-4" points="57.81 73.83 54.5 66.75 61.62 65.67 65.5 69.75 85.5 79.75"/><polyline class="cls-4" points="23.89 83.77 19.45 77.35 26.3 75.1 30.8 78.48 52.18 85.03"/><polyline class="cls-4" points="140.12 95.24 132.47 96.8 135.86 103.17 141.44 103.84 161.4 113.91"/><polygon points="43.96 101.9 58.23 93.72 62.73 99.49 74.74 97.06 103.3 102.27 62.92 115.09 43.96 101.9"/><path class="cls-3" d="M58,108.16l4.35,5.58,12.43-2.52,24.41,4.45L63.09,127.13l-17.26-12,12.14-7m.51-2.59-1.5.86-12.15,7L42.09,115l2.6,1.81,17.25,12,.81.57.94-.3,36.08-11.46,7.66-2.43-7.91-1.44-24.41-4.46-.38-.07-.38.08-11.21,2.27-3.59-4.6-1.07-1.36Z" transform="translate(0 -13.14)"/><polygon points="45.25 59.87 34.35 54.27 28.45 58.6 16.93 46.86 38.76 39.3 74.14 62.6 45.25 59.87"/><path class="cls-3" d="M38.62,53.55,70.24,74.37,45.53,72,34.25,66.24l-5.69,4.19-9.81-10,19.87-6.88m.28-2.21-.93.32L18.1,58.54l-3,1,2.22,2.26,9.8,10,1.21,1.23,1.4-1,4.7-3.46,10.18,5.23L45,74l.38,0,24.71,2.34,8,.76L71.34,72.7,39.72,51.88l-.82-.54Z" transform="translate(0 -13.14)"/><polygon points="3.96 4.95 7.28 1.29 186.76 112.3 185.25 114.79 3.96 4.95"/><path class="cls-3" d="M7.46,15.72,185.39,125.77l-.47.79L5.51,17.87l2-2.15M7.1,13.14,6,14.38,4,16.53,2.4,18.32l2.08,1.26,179.4,108.69,1.71,1,1-1.7.48-.79,1-1.7-1.68-1L8.51,14,7.1,13.14Z" transform="translate(0 -13.14)"/><polygon points="1.2 118.22 2.1 113.34 175.57 120.12 175.49 123.05 1.2 118.22"/><path class="cls-3" d="M2.93,127.52l171.62,6.71,0,.93L2.39,130.4l.54-2.88m-1.65-2.06L1,127.16.43,130,0,132.34l2.34.06,172.12,4.76,2,.06.06-2,0-.94.06-2-2-.07L3,125.52l-1.73-.06Z" transform="translate(0 -13.14)"/><g class="cls-5"><path d="M130,212.26a19.68,19.68,0,0,1-12-4L63.58,167a19.83,19.83,0,0,1-3.84-27.79L101,84.74a19.85,19.85,0,0,1,27.8-3.85l54.46,41.24a19.84,19.84,0,0,1,3.85,27.79l-41.23,54.47A19.72,19.72,0,0,1,130,212.26Zm-.2-34.47a13,13,0,1,0,7.84,2.64A12.9,12.9,0,0,0,129.81,177.79ZM77.19,138A13,13,0,1,0,85,140.59,12.93,12.93,0,0,0,77.19,138Zm46.23-6.4a13,13,0,1,0,7.83,2.64A12.9,12.9,0,0,0,123.42,131.56Zm46.23-6.39a13,13,0,1,0,7.83,2.64A12.92,12.92,0,0,0,169.65,125.17ZM117,85.34A13,13,0,1,0,124.86,88,12.89,12.89,0,0,0,117,85.34Z" transform="translate(0 -13.14)"/><path class="cls-3" d="M116.8,77.87a18.78,18.78,0,0,1,11.36,3.82l54.47,41.23a18.84,18.84,0,0,1,3.65,26.4l-41.23,54.47a18.85,18.85,0,0,1-26.4,3.65L64.19,166.21a18.85,18.85,0,0,1-3.66-26.4l41.24-54.47a18.8,18.8,0,0,1,15-7.47m.2,34.47a14,14,0,1,0-8.44-2.84,14,14,0,0,0,8.44,2.84m52.63,39.83a14,14,0,1,0-8.44-2.84,14,14,0,0,0,8.44,2.84m-46.23,6.4a14,14,0,1,0-8.44-2.84,14,14,0,0,0,8.44,2.84M77.17,165a14,14,0,1,0-8.44-2.84A14,14,0,0,0,77.17,165m52.62,39.84a14,14,0,1,0-8.44-2.84,14,14,0,0,0,8.44,2.84m-13-128.93h0a20.68,20.68,0,0,0-16.63,8.27L58.94,138.6a20.86,20.86,0,0,0,4,29.2L117.45,209a20.83,20.83,0,0,0,29.19-4l41.24-54.47a20.86,20.86,0,0,0-4-29.2L129.37,80.1a20.64,20.64,0,0,0-12.57-4.23Zm.2,34.47a12,12,0,1,1,7.26-21.57A12,12,0,0,1,117,110.34Zm52.63,39.83a12,12,0,1,1,9.57-4.76,11.94,11.94,0,0,1-9.57,4.76Zm-46.23,6.4a12,12,0,1,1,9.58-4.76,11.89,11.89,0,0,1-9.58,4.76ZM77.17,163a12,12,0,1,1,7.25-21.57A12,12,0,0,1,77.17,163Zm52.62,39.84a12,12,0,1,1,9.58-4.76,11.89,11.89,0,0,1-9.58,4.76Z" transform="translate(0 -13.14)"/></g></g></g></svg>